<?xml version="1.0" encoding="UTF-8"?>
<svg version="1.1" viewBox="0 0 500 500" xmlns="http://www.w3.org/2000/svg">

<path d="M0 0 C1.91522461 0.02707031 1.91522461 0.02707031 3.86914062 0.0546875 C6.97559405 0.10122613 10.08165376 0.17294248 13.1875 0.25 C13.1875 8.83 13.1875 17.41 13.1875 26.25 C5.5 27.0625 5.5 27.0625 3.10668945 27.29614258 C-1.17186555 27.79113282 -4.34808781 28.49261071 -7.8125 31.25 C-9.48381932 34.02531888 -10.06580189 36.11481097 -10.09960938 39.33740234 C-10.11973083 40.53047501 -10.11973083 40.53047501 -10.14025879 41.74765015 C-10.14553589 42.60178497 -10.15081299 43.4559198 -10.15625 44.3359375 C-10.1708728 45.22930817 -10.18549561 46.12267883 -10.20056152 47.04312134 C-10.24700366 49.9037016 -10.28116876 52.76421685 -10.3125 55.625 C-10.72121734 92.25236185 -10.72121734 92.25236185 -18.8125 101.25 C-22.81415343 104.3492588 -26.64066163 107.25 -31.8125 107.25 C-30.43791393 109.99917214 -28.84736983 110.26411102 -26.0625 111.5 C-17.61583925 115.65113669 -14.81059074 121.71132 -11.8125 130.25 C-11.4825 131.24 -11.1525 132.23 -10.8125 133.25 C-10.090625 132.46625 -9.36875 131.6825 -8.625 130.875 C-5.43764938 127.90013942 -3.32756635 126.29097868 1.10546875 126.21875 C5.86790991 126.57615647 8.86012677 127.62903502 12.1875 131.25 C14.0449785 135.05783093 14.30266801 138.58703968 14.5625 142.75 C14.95338614 147.63276419 15.82018762 150.51865385 19.1875 154.25 C24.55236033 158.38541317 29.00676977 159.68894649 35.6796875 159.58984375 C41.75406932 158.76667986 47.38213853 155.7818806 51.25 151 C54.12920498 146.26621815 54.69066146 141.4887404 53.84765625 136.0625 C51.54171671 127.62245986 45.52452894 121.02668248 40.01953125 114.44921875 C28.92510787 101.16066499 21.06695028 90.19993805 22.1875 72.25 C23.66307339 63.4642465 29.12888523 56.5311535 35.875 50.9375 C45.91955085 44.05583253 57.36673769 42.92838744 69.1875 44.25 C78.40172712 46.04134428 85.53870345 50.9434364 90.85546875 58.67578125 C93.87824834 64.12017138 95.29300955 69.04686307 94.1875 75.25 C92.81175771 78.76578585 91.59285087 79.96719707 88.5 82.125 C84.34119219 83.53742529 81.37610117 83.50136632 77.1875 82.25 C72.86097661 79.73457942 70.79291632 76.31332433 68.3984375 72.0546875 C67.15405621 69.95192161 67.15405621 69.95192161 64.1875 68.25 C59.60459054 67.80649263 57.28697323 67.64178077 53.25 69.875 C50.62434112 72.89848598 50.11167782 74.2314244 50.1875 78.25 C53.11756125 89.36252858 62.79986746 97.96467082 70.33984375 106.15625 C72.1875 108.25 72.1875 108.25 74.1875 111.25 C74.24357422 110.05503906 74.24357422 110.05503906 74.30078125 108.8359375 C74.97258278 98.00807748 74.97258278 98.00807748 78.1875 93.25 C81.42612959 91.6306852 84.68619847 91.68506204 88.1875 92.25 C92.75636406 95.23374796 96.00221106 99.20772583 99.53515625 103.3359375 C102.61596624 106.90472449 105.93987186 110.05974379 109.5625 113.0625 C112.07056296 115.18243995 114.23825014 117.37848958 116.35546875 119.88671875 C120.39723378 124.56329631 124.73174902 128.90568841 129.125 133.25 C130.29385742 134.41208984 130.29385742 134.41208984 131.48632812 135.59765625 C133.3844242 137.48410757 135.28483149 139.36816245 137.1875 141.25 C138.03806227 129.49401438 138.27853249 117.81129098 138.15039062 106.02392578 C138.14201172 104.95770996 138.13363281 103.89149414 138.125 102.79296875 C138.11339844 101.84446045 138.10179687 100.89595215 138.08984375 99.91870117 C138.1875 97.25 138.1875 97.25 139.1875 92.25 C144.4675 92.25 149.7475 92.25 155.1875 92.25 C155.30050985 101.81202405 155.39222072 111.37360382 155.44656086 120.93614483 C155.4726429 125.37654642 155.50801482 129.81646703 155.56469727 134.2565918 C155.61906779 138.54249096 155.64893102 142.82792783 155.66188622 147.11414528 C155.67111715 148.74845469 155.68914355 150.3827391 155.71615028 152.01685143 C155.75251015 154.30825623 155.75744283 156.59775692 155.75512695 158.8894043 C155.76623001 160.19290329 155.77733307 161.49640228 155.78877258 162.83940125 C155.03082122 167.1387291 153.58631589 168.59507487 150.1875 171.25 C146.875 172 146.875 172 143.1875 171.25 C136.56839211 166.51990928 130.93496339 160.12874481 125.21875 154.37890625 C124.29783569 153.456577 123.37692139 152.53424774 122.42810059 151.58396912 C120.00602446 149.15811523 117.58696921 146.72927148 115.1685791 144.29974365 C112.68976167 141.81060888 110.20805963 139.32435345 107.7265625 136.83789062 C102.87711665 131.9783249 98.03244492 127.11406971 93.1875 122.25 C92.8575 138.42 92.5275 154.59 92.1875 171.25 C86.5775 171.25 80.9675 171.25 75.1875 171.25 C74.8575 168.61 74.5275 165.97 74.1875 163.25 C73.56875 164.095625 72.95 164.94125 72.3125 165.8125 C65.39892837 174.0466415 53.87691313 180.7619851 43.1875 182.25 C33.35512823 182.84879299 23.35859318 183.26781225 14.1875 179.25 C13.52105469 178.99476563 12.85460937 178.73953125 12.16796875 178.4765625 C1.80070688 174.01884438 -4.42005902 165.77733795 -9.8125 156.25 C-9.89975659 160.4790362 -9.9529789 164.70784012 -10 168.9375 C-10.02513672 170.13568359 -10.05027344 171.33386719 -10.07617188 172.56835938 C-10.09067383 174.30375977 -10.09067383 174.30375977 -10.10546875 176.07421875 C-10.12903442 177.66882935 -10.12903442 177.66882935 -10.15307617 179.2956543 C-9.76408484 182.66997981 -8.79015454 184.51744578 -6.8125 187.25 C-3.27016583 189.88192118 1.1716707 189.91468966 5.4375 190.375 C7.995 190.66375 10.5525 190.9525 13.1875 191.25 C13.1875 199.83 13.1875 208.41 13.1875 217.25 C8.959375 217.311875 4.73125 217.37375 0.375 217.4375 C-0.9344458 217.46481201 -2.2438916 217.49212402 -3.59301758 217.52026367 C-15.95701637 217.60693375 -27.36985261 215.26049367 -36.62890625 206.5390625 C-44.17077077 197.57955428 -45.4007997 185.67812079 -45.31640625 174.4140625 C-45.32582748 173.25047211 -45.33524872 172.08688171 -45.34495544 170.88803101 C-45.37333342 167.21683615 -45.37669229 163.54629502 -45.375 159.875 C-45.37861596 156.18237853 -45.3881908 152.49022316 -45.41575623 148.79769897 C-45.43246017 146.5127857 -45.43548736 144.22771834 -45.42274475 141.94277954 C-45.46244764 135.95202818 -45.79986369 131.4916389 -48.8125 126.25 C-54.87995747 122.03407325 -61.65771258 122.58748997 -68.8125 122.25 C-68.8125 113.34 -68.8125 104.43 -68.8125 95.25 C-61.0625 94.375 -61.0625 94.375 -58.64160156 94.11376953 C-53.32814132 93.66154089 -53.32814132 93.66154089 -48.8125 91.25 C-45.63661784 84.53293814 -45.39935406 78.68800053 -45.44140625 71.33203125 C-45.42401752 69.0019517 -45.40643321 66.67187361 -45.38867188 64.34179688 C-45.37863372 60.70627057 -45.37499607 57.07084228 -45.37670898 53.43530273 C-45.34261966 19.98458801 -45.34261966 19.98458801 -34.8125 9.25 C-25.61561896 0.24673751 -12.12103563 -0.33121064 0 0 Z " fill="#FEFEFE" transform="translate(162.8125,153.75)"/>
<path d="M0 0 C37.81191175 -1.14273743 37.81191175 -1.14273743 49.1875 9.25 C58.2193707 19.52120635 59.27838158 31.92718285 59.34375 45.10546875 C59.3583728 46.2289119 59.37299561 47.35235504 59.38806152 48.50984192 C59.44984172 53.27459844 59.48992622 58.03947645 59.53173828 62.80444336 C59.56555587 66.30075327 59.61062705 69.79679615 59.65625 73.29296875 C59.6615271 74.36290573 59.6668042 75.43284271 59.67224121 76.53520203 C59.74535747 82.03091574 59.94105726 86.86515218 62 92 C67.25592441 94.77032619 73.22605305 94.41279219 79.05078125 94.65625 C80.51064453 94.82640625 80.51064453 94.82640625 82 95 C83.26723437 97.53446873 83.12941328 99.32226954 83.1328125 102.15625 C83.13410156 103.17847656 83.13539063 104.20070313 83.13671875 105.25390625 C83.13285156 106.32511719 83.12898438 107.39632812 83.125 108.5 C83.12886719 109.57121094 83.13273437 110.64242187 83.13671875 111.74609375 C83.13542969 112.76832031 83.13414062 113.79054688 83.1328125 114.84375 C83.13168457 115.78412109 83.13055664 116.72449219 83.12939453 117.69335938 C83 120 83 120 82 122 C78.90634229 122.5093217 75.84253992 122.83750839 72.72265625 123.12304688 C68.45137663 123.58877579 65.3584534 124.26053163 62 127 C60.28130008 130.51096817 59.74734471 133.35489426 59.72875977 137.24243164 C59.71857315 138.26442154 59.70838654 139.28641144 59.69789124 140.33937073 C59.69575119 141.43522995 59.69361115 142.53108917 59.69140625 143.66015625 C59.66623077 146.00455961 59.64083299 148.3489606 59.61523438 150.69335938 C59.58660281 154.37067968 59.56257463 158.04795837 59.54370117 161.7253418 C59.52186712 165.28717169 59.48239941 168.8485025 59.44140625 172.41015625 C59.44129044 173.49184586 59.44117462 174.57353546 59.4410553 175.68800354 C59.29737024 186.93454594 57.36162053 198.12004524 50 207 C41.41721369 214.41365677 33.3544722 217.14758616 22.0703125 217.09765625 C20.78125 217.09443359 19.4921875 217.09121094 18.1640625 217.08789062 C16.81770764 217.07953733 15.47135348 217.07107241 14.125 217.0625 C12.75520996 217.0574783 11.38541815 217.05291657 10.015625 217.04882812 C6.67706436 217.03707263 3.33852649 217.01913805 0 217 C0 208.42 0 199.84 0 191 C8.1875 190.1875 8.1875 190.1875 10.73901367 189.95385742 C15.12175753 189.4771891 18.51463742 188.92087824 22 186 C24.68323081 181.22587869 24.29652023 176.18977834 24.30859375 170.87109375 C24.33377262 168.84570048 24.35917034 166.82030992 24.38476562 164.79492188 C24.41336671 161.62460152 24.43739968 158.45432867 24.45629883 155.28393555 C24.66582566 125.84196164 24.66582566 125.84196164 31.33984375 117.53515625 C35.34838963 113.82843029 40.43044513 110 46 110 C44.63139711 107.26279423 43.09186198 107.02976915 40.3125 105.8125 C33.81014026 102.6449219 30.48287816 98.86348886 27.1875 92.5 C24.84218737 85.58749963 24.84446197 78.68247819 24.7890625 71.46484375 C24.76101111 69.41861156 24.73234678 67.37238769 24.703125 65.32617188 C24.6618048 62.12459396 24.62488255 58.92317463 24.59863281 55.72143555 C24.57100304 52.61475298 24.52515694 49.50875974 24.4765625 46.40234375 C24.47330963 45.449077 24.47005676 44.49581024 24.46670532 43.51365662 C24.36996071 38.27006921 23.93357724 34.53515923 21 30 C17.49960054 27.216349 12.56318147 27.3118709 8.25 26.875 C5.5275 26.58625 2.805 26.2975 0 26 C0 17.42 0 8.84 0 0 Z " fill="#E1CBC3" transform="translate(299,153)"/>
<path d="M0 0 C1.91522461 0.02707031 1.91522461 0.02707031 3.86914062 0.0546875 C6.97559405 0.10122613 10.08165376 0.17294248 13.1875 0.25 C13.1875 8.83 13.1875 17.41 13.1875 26.25 C5.5 27.0625 5.5 27.0625 3.10668945 27.29614258 C-1.17186555 27.79113282 -4.34808781 28.49261071 -7.8125 31.25 C-9.48381932 34.02531888 -10.06580189 36.11481097 -10.09960938 39.33740234 C-10.11973083 40.53047501 -10.11973083 40.53047501 -10.14025879 41.74765015 C-10.14553589 42.60178497 -10.15081299 43.4559198 -10.15625 44.3359375 C-10.1708728 45.22930817 -10.18549561 46.12267883 -10.20056152 47.04312134 C-10.24700366 49.9037016 -10.28116876 52.76421685 -10.3125 55.625 C-10.72121734 92.25236185 -10.72121734 92.25236185 -18.8125 101.25 C-22.81415343 104.3492588 -26.64066163 107.25 -31.8125 107.25 C-30.43791393 109.99917214 -28.84736983 110.26411102 -26.0625 111.5 C-18.51394367 115.20976059 -15.557146 120.1378651 -12.609375 127.78515625 C-11.28422026 131.88404174 -10.68933911 135.7504727 -10.65478516 140.05273438 C-10.64452301 140.9771936 -10.63426086 141.90165283 -10.62368774 142.85412598 C-10.61638641 143.8407019 -10.60908508 144.82727783 -10.6015625 145.84375 C-10.57350573 147.94662253 -10.54484136 150.04948702 -10.515625 152.15234375 C-10.47430824 155.45719273 -10.43740548 158.76188968 -10.41113281 162.06689453 C-10.38353759 165.26365793 -10.33768199 168.45974649 -10.2890625 171.65625 C-10.28580963 172.64282593 -10.28255676 173.62940186 -10.27920532 174.64587402 C-10.18987754 179.63063554 -10.11580784 183.23174367 -6.8125 187.25 C-3.27016583 189.88192118 1.1716707 189.91468966 5.4375 190.375 C7.995 190.66375 10.5525 190.9525 13.1875 191.25 C13.1875 199.83 13.1875 208.41 13.1875 217.25 C8.959375 217.311875 4.73125 217.37375 0.375 217.4375 C-0.9344458 217.46481201 -2.2438916 217.49212402 -3.59301758 217.52026367 C-15.95701637 217.60693375 -27.36985261 215.26049367 -36.62890625 206.5390625 C-44.17077077 197.57955428 -45.4007997 185.67812079 -45.31640625 174.4140625 C-45.32582748 173.25047211 -45.33524872 172.08688171 -45.34495544 170.88803101 C-45.37333342 167.21683615 -45.37669229 163.54629502 -45.375 159.875 C-45.37861596 156.18237853 -45.3881908 152.49022316 -45.41575623 148.79769897 C-45.43246017 146.5127857 -45.43548736 144.22771834 -45.42274475 141.94277954 C-45.46244764 135.95202818 -45.79986369 131.4916389 -48.8125 126.25 C-54.87995747 122.03407325 -61.65771258 122.58748997 -68.8125 122.25 C-68.8125 113.34 -68.8125 104.43 -68.8125 95.25 C-61.0625 94.375 -61.0625 94.375 -58.64160156 94.11376953 C-53.32814132 93.66154089 -53.32814132 93.66154089 -48.8125 91.25 C-45.63661784 84.53293814 -45.39935406 78.68800053 -45.44140625 71.33203125 C-45.42401752 69.0019517 -45.40643321 66.67187361 -45.38867188 64.34179688 C-45.37863372 60.70627057 -45.37499607 57.07084228 -45.37670898 53.43530273 C-45.34261966 19.98458801 -45.34261966 19.98458801 -34.8125 9.25 C-25.61561896 0.24673751 -12.12103563 -0.33121064 0 0 Z " fill="#E1CBC4" transform="translate(162.8125,153.75)"/>
<path d="M0 0 C2.125 0.9375 2.125 0.9375 4 2 C3.94465088 2.83208984 3.88930176 3.66417969 3.83227539 4.52148438 C3.57005633 8.51398109 3.31404981 12.5068183 3.0625 16.5 C3.01642609 17.23009277 2.97035217 17.96018555 2.92288208 18.71240234 C2.12337218 31.53815801 1.63080734 44.35809302 1.34204102 57.20507812 C1.31037842 58.47802734 1.27871582 59.75097656 1.24609375 61.0625 C1.22216553 62.18785156 1.1982373 63.31320313 1.17358398 64.47265625 C1 67 1 67 0 68 C-1.66617115 68.04063832 -3.33388095 68.042721 -5 68 C-7.32170473 63.35659055 -6.19423439 57.01132181 -6.1875 51.875 C-6.18756042 51.1813736 -6.18762085 50.48774719 -6.18768311 49.77310181 C-6.17604252 40.38090493 -5.91052472 31.05215743 -5.125 21.6875 C-5.04660889 20.74825684 -4.96821777 19.80901367 -4.88745117 18.84130859 C-3.73274856 6.57688332 -3.73274856 6.57688332 -2 1 C-1.34 0.67 -0.68 0.34 0 0 Z " fill="#FDDE5B" transform="translate(249,36)"/>
<path d="M0 0 C1.11375 0.3403125 1.11375 0.3403125 2.25 0.6875 C2.01062124 4.29759053 1.37066303 5.5639503 -1.19921875 8.1953125 C-2.26793306 9.0807994 -3.34820168 9.95246134 -4.4375 10.8125 C-5.0154834 11.28478027 -5.5934668 11.75706055 -6.18896484 12.24365234 C-8.03071659 13.74054016 -9.88750631 15.21652296 -11.75 16.6875 C-12.3466748 17.16058594 -12.94334961 17.63367188 -13.55810547 18.12109375 C-15.9104407 19.9828488 -18.26553049 21.84041022 -20.63720703 23.67749023 C-23.44604916 25.85440194 -26.21173166 28.05677811 -28.90234375 30.37890625 C-30.34287109 31.61447266 -30.34287109 31.61447266 -31.8125 32.875 C-32.64910156 33.61105469 -33.48570313 34.34710938 -34.34765625 35.10546875 C-37.08732515 36.90964095 -38.53552213 37.03702433 -41.75 36.6875 C-42.5625 35 -42.5625 35 -42.75 32.6875 C-38.866595 28.3396093 -34.3203355 24.74092226 -29.8125 21.0625 C-29.0697583 20.45365967 -28.3270166 19.84481934 -27.56176758 19.2175293 C-20.70031929 13.6108044 -13.76075012 8.10620563 -6.75 2.6875 C-6.01910156 2.08679688 -5.28820312 1.48609375 -4.53515625 0.8671875 C-2.75 -0.3125 -2.75 -0.3125 0 0 Z " fill="#F5DC6E" transform="translate(119.75,355.3125)"/>
<path d="M0 0 C4.4274364 0.35510155 6.36619007 1.89618919 9.375 5.0625 C10.15875 5.88234375 10.9425 6.7021875 11.75 7.546875 C14.22664857 10.24710989 16.658063 12.97635333 19.04296875 15.7578125 C21.99077737 19.13514213 25.04201368 22.41655892 28.09326172 25.70043945 C30.86598787 28.70131394 33.60172938 31.68891244 36 35 C35.75 37.3125 35.75 37.3125 35 39 C33.26953125 39.74609375 33.26953125 39.74609375 31 40 C28.88671875 38.41015625 28.88671875 38.41015625 26.6875 36.0625 C25.96949219 35.31097656 25.25148438 34.55945313 24.51171875 33.78515625 C22.55115167 31.61115263 20.6197439 29.41992205 18.69921875 27.2109375 C14.94087675 22.89910804 11.04916717 18.72320294 7.125 14.5625 C6.44953125 13.84384766 5.7740625 13.12519531 5.078125 12.38476562 C2.0714702 9.16113226 2.0714702 9.16113226 -1 6 C-1.125 3.5 -1.125 3.5 -1 1 C-0.67 0.67 -0.34 0.34 0 0 Z " fill="#F7DC68" transform="translate(96,93)"/>
<path d="M0 0 C0.639375 0.2475 1.27875 0.495 1.9375 0.75 C2.4325 2.235 2.4325 2.235 2.9375 3.75 C-0.43802247 9.01352656 -5.53093085 13.20167656 -10.26953125 17.20703125 C-12.21729638 18.83760984 -12.21729638 18.83760984 -14.4375 21.1875 C-16.0625 22.75 -16.0625 22.75 -18.0625 22.75 C-18.0625 23.41 -18.0625 24.07 -18.0625 24.75 C-19.9067238 26.60826611 -21.89923647 28.2406275 -23.90234375 29.92578125 C-25.21575037 31.03493295 -26.5070672 32.17197949 -27.75390625 33.35546875 C-29.25 34.75 -29.25 34.75 -32.0625 36.75 C-34.9375 36.5625 -34.9375 36.5625 -37.0625 35.75 C-37.0625 31.75 -37.0625 31.75 -35.59375 29.85546875 C-34.9234375 29.22253906 -34.253125 28.58960938 -33.5625 27.9375 C-32.9128125 27.31230469 -32.263125 26.68710938 -31.59375 26.04296875 C-29.52828574 24.17193863 -27.44080303 22.33777689 -25.3359375 20.51171875 C-20.03770184 15.89399609 -14.97468823 11.03420509 -9.890625 6.18359375 C-9.16617187 5.49652344 -8.44171875 4.80945313 -7.6953125 4.1015625 C-7.04449707 3.48104004 -6.39368164 2.86051758 -5.72314453 2.22119141 C-3.67387228 0.40570853 -2.76350584 -0.33497041 0 0 Z " fill="#F8DD68" transform="translate(409.0625,113.25)"/>
<path d="M0 0 C1.46687256 -0.04060547 1.46687256 -0.04060547 2.96337891 -0.08203125 C3.75832764 -0.11232422 4.55327637 -0.14261719 5.37231445 -0.17382812 C7.87352759 0.22361636 8.74337425 1.21926408 10.32666016 3.13671875 C9.66666016 4.45671875 9.00666016 5.77671875 8.32666016 7.13671875 C-9.16333984 7.13671875 -26.65333984 7.13671875 -44.67333984 7.13671875 C-44.67333984 5.15671875 -44.67333984 3.17671875 -44.67333984 1.13671875 C-39.03576941 0.99252948 -33.3981563 0.85018677 -27.76049805 0.70947266 C-25.84707413 0.66146387 -23.93366229 0.61297153 -22.02026367 0.56396484 C-16.66083141 0.42686634 -11.30137718 0.30209724 -5.94134521 0.19091797 C-3.96044014 0.14357967 -1.98009962 0.07369771 0 0 Z " fill="#FDDE5A" transform="translate(47.67333984375,240.86328125)"/>
<path d="M0 0 C3.18874171 0.30501008 4.68581304 0.70028614 7.03515625 2.94140625 C8.03869141 4.23884766 8.03869141 4.23884766 9.0625 5.5625 C9.83207031 6.54734375 10.60164063 7.5321875 11.39453125 8.546875 C12.26531228 9.69618413 13.13363654 10.8473572 14 12 C14.4954834 12.65677734 14.9909668 13.31355469 15.50146484 13.99023438 C17.593183 16.76706978 19.68241182 19.54540157 21.75024414 22.34008789 C24.02895282 25.4152533 26.32842192 28.41129114 28.83984375 31.30078125 C31 34 31 34 31.3125 36.875 C31.209375 37.57625 31.10625 38.2775 31 39 C28.525 39.495 28.525 39.495 26 40 C19.18568471 31.87788683 12.76821898 23.50067577 6.47558594 14.97119141 C5.43404679 13.57983021 4.37279073 12.20312396 3.29785156 10.83740234 C2.74709961 10.13180176 2.19634766 9.42620117 1.62890625 8.69921875 C1.12302979 8.06201904 0.61715332 7.42481934 0.09594727 6.76831055 C-1 5 -1 5 -0.875 2 C-0.58625 1.34 -0.2975 0.68 0 0 Z " fill="#F5DB6B" transform="translate(360,357)"/>
<path d="M0 0 C0.495 2.475 0.495 2.475 1 5 C-1.90960642 6.63007571 -4.25719588 7.3238418 -7.5703125 7.6328125 C-8.45895996 7.7167627 -9.34760742 7.80071289 -10.26318359 7.88720703 C-11.67978271 8.00491455 -11.67978271 8.00491455 -13.125 8.125 C-14.0938916 8.20991699 -15.0627832 8.29483398 -16.06103516 8.38232422 C-25.05170849 9.11304616 -33.98709493 9.20028678 -43 9 C-43.625 7.125 -43.625 7.125 -44 5 C-41.03337429 2.03337429 -37.56398826 2.31121439 -33.5625 1.9375 C-32.33623901 1.8139917 -32.33623901 1.8139917 -31.08520508 1.68798828 C-29.45659863 1.52527263 -27.82760947 1.36633737 -26.19824219 1.21142578 C-24.4042168 1.03887736 -22.61193941 0.84823416 -20.8203125 0.65234375 C-13.87528422 -0.07925418 -6.97868022 -0.09985393 0 0 Z " fill="#FBDC5B" transform="translate(472,252)"/>
<path d="M0 0 C0 15.18 0 30.36 0 46 C-2.475 46.495 -2.475 46.495 -5 47 C-6 46 -6 46 -6.12025452 44.13340759 C-6.11803391 43.31844315 -6.11581329 42.5034787 -6.11352539 41.66381836 C-6.11344986 40.7429393 -6.11337433 39.82206024 -6.11329651 38.87327576 C-6.10813522 37.87224319 -6.10297394 36.87121063 -6.09765625 35.83984375 C-6.0962413 34.82024063 -6.09482635 33.80063751 -6.09336853 32.75013733 C-6.08775097 29.47922893 -6.0751955 26.20838787 -6.0625 22.9375 C-6.05748726 20.72591244 -6.05292396 18.51432382 -6.04882812 16.30273438 C-6.03777584 10.86846643 -6.02102063 5.43423803 -6 0 C-4 -1 -4 -1 0 0 Z " fill="#F6D963" transform="translate(242,417)"/>
<path d="M0 0 C1.65 0 3.3 0 5 0 C5.37125 1.010625 5.7425 2.02125 6.125 3.0625 C7.71959212 7.31220243 9.3838542 11.53297643 11.0625 15.75 C11.3198291 16.39976807 11.5771582 17.04953613 11.84228516 17.71899414 C12.86725871 20.28407826 13.89566826 22.80034856 15.17578125 25.25 C16.38916406 27.82628198 16.12729036 30.19961214 16 33 C14.1875 33.6875 14.1875 33.6875 12 34 C8.51553746 31.49464264 7.14833298 27.44214502 5.5 23.625 C5.19320312 22.91907715 4.88640625 22.2131543 4.5703125 21.48583984 C1.92320382 15.19188646 -0.14123927 8.80567875 -1 2 C-0.67 1.34 -0.34 0.68 0 0 Z " fill="#FADE5F" transform="translate(178,71)"/>
<path d="M0 0 C0 1.65 0 3.3 0 5 C-0.68102783 5.35304199 -1.36205566 5.70608398 -2.0637207 6.06982422 C-5.14758004 7.66975875 -8.23005246 9.27234732 -11.3125 10.875 C-12.38435547 11.43058594 -13.45621094 11.98617188 -14.56054688 12.55859375 C-15.58857422 13.09355469 -16.61660156 13.62851562 -17.67578125 14.1796875 C-18.62364502 14.67194824 -19.57150879 15.16420898 -20.5480957 15.67138672 C-23.14161564 17.02847487 -23.14161564 17.02847487 -26 19 C-28.6875 18.625 -28.6875 18.625 -31 18 C-31.33 16.68 -31.66 15.36 -32 14 C-25.84942201 10.14644376 -19.54883259 6.5543667 -13.1875 3.0625 C-12.45861572 2.6487915 -11.72973145 2.23508301 -10.97875977 1.80883789 C-4.48894433 -1.7020948 -4.48894433 -1.7020948 0 0 Z " fill="#F6DC6A" transform="translate(78,304)"/>
<path d="M0 0 C2.475 0.495 2.475 0.495 5 1 C4.72019962 7.18455327 1.66778618 10.44462514 -2.1875 14.9375 C-2.75275391 15.61490234 -3.31800781 16.29230469 -3.90039062 16.99023438 C-5.58696132 19.00523236 -7.29005397 21.00481707 -9 23 C-9.87325928 24.0211792 -9.87325928 24.0211792 -10.76416016 25.06298828 C-12.1743262 26.71018487 -13.58690254 28.35531752 -15 30 C-16.32 29.67 -17.64 29.34 -19 29 C-19.33416561 24.85752218 -18.70380228 23.00628197 -16.11328125 19.78515625 C-15.50419922 19.01623047 -14.89511719 18.24730469 -14.26757812 17.45507812 C-13.62240234 16.66552734 -12.97722656 15.87597656 -12.3125 15.0625 C-11.68666016 14.27681641 -11.06082031 13.49113281 -10.41601562 12.68164062 C-7.00028398 8.40750521 -3.51776309 4.19037553 0 0 Z " fill="#F8DD69" transform="translate(335,88)"/>
<path d="M0 0 C3.9368529 0.47608454 6.84492159 2.6475883 10.125 4.75 C15.58758741 8.20381504 21.14423548 11.25056655 27 14 C27 15.65 27 17.3 27 19 C24.47620726 19.96762014 22.67736965 20.24348976 20.10644531 19.31933594 C17.90306234 18.23794014 15.76381284 17.07901702 13.625 15.875 C12.53058594 15.2871875 12.53058594 15.2871875 11.4140625 14.6875 C6.68166467 12.10158261 2.33097417 9.21109167 -2 6 C-1.125 1.125 -1.125 1.125 0 0 Z " fill="#F4DD74" transform="translate(405,317)"/>
<path d="M0 0 C2.23828125 0.01953125 2.23828125 0.01953125 5 1 C6.79973269 3.36569615 7.96177268 5.98994417 9.1875 8.6875 C9.52974609 9.39583984 9.87199219 10.10417969 10.22460938 10.83398438 C15.67669372 22.29924135 15.67669372 22.29924135 14 28 C12.125 28.625 12.125 28.625 10 29 C7.39831507 26.39831507 6.85148273 23.98815673 5.6875 20.5 C3.5994794 14.39315201 1.07270235 8.67469285 -2 3 C-1.34 2.01 -0.68 1.02 0 0 Z " fill="#FADD5F" transform="translate(311,394)"/>
<path d="M0 0 C0.33 1.32 0.66 2.64 1 4 C-3.23625794 7.58905187 -7.75345239 10.46375165 -12.5 13.3125 C-13.61955078 14.01342773 -13.61955078 14.01342773 -14.76171875 14.72851562 C-20.301837 18.04768381 -20.301837 18.04768381 -24.03125 17.79296875 C-24.6809375 17.53128906 -25.330625 17.26960938 -26 17 C-25.68721378 13.90579206 -25.42208198 12.40103299 -23.12988281 10.22314453 C-22.32905273 9.69833496 -21.52822266 9.17352539 -20.703125 8.6328125 C-19.38828125 7.77042969 -19.38828125 7.77042969 -18.046875 6.890625 C-17.12390625 6.30796875 -16.2009375 5.7253125 -15.25 5.125 C-14.3425 4.51914063 -13.435 3.91328125 -12.5 3.2890625 C-5.03478824 -1.5131205 -5.03478824 -1.5131205 0 0 Z " fill="#F6DD6D" transform="translate(439,186)"/>
<path d="M0 0 C2.77525781 0.96616435 4.93861216 2.39061918 7.38671875 4.015625 C11.6503589 6.81417538 15.93993744 9.28643931 20.51953125 11.52734375 C22.19921875 12.765625 22.19921875 12.765625 23.06640625 14.78515625 C23.11023438 15.43871094 23.1540625 16.09226563 23.19921875 16.765625 C22.53921875 17.425625 21.87921875 18.085625 21.19921875 18.765625 C12.6248557 17.87366106 2.99376113 11.99574802 -2.80078125 5.765625 C-3.546875 3.046875 -3.546875 3.046875 -3.80078125 0.765625 C-1.80078125 -0.234375 -1.80078125 -0.234375 0 0 Z " fill="#F8DD68" transform="translate(68.80078125,168.234375)"/>
<path d="M0 0 C1.67542976 0.28604898 3.34385343 0.61781233 5 1 C4.49885533 5.76087436 2.23966271 8.97554209 -0.5 12.75 C-0.91636719 13.33910156 -1.33273438 13.92820312 -1.76171875 14.53515625 C-4.76971726 18.76971726 -4.76971726 18.76971726 -6 20 C-7.66617115 20.04063832 -9.33388095 20.042721 -11 20 C-11.64208984 18.22729492 -11.64208984 18.22729492 -12 16 C-11.11962891 14.18481445 -11.11962891 14.18481445 -9.7265625 12.36328125 C-9.2315625 11.70392578 -8.7365625 11.04457031 -8.2265625 10.36523438 C-7.69804687 9.68783203 -7.16953125 9.01042969 -6.625 8.3125 C-6.10421875 7.62349609 -5.5834375 6.93449219 -5.046875 6.22460938 C-1.33580995 1.33580995 -1.33580995 1.33580995 0 0 Z " fill="#F5DE72" transform="translate(174,399)"/>
<path d="M0 0 C0.495 2.475 0.495 2.475 1 5 C-2.04634946 6.73334377 -4.51070093 7.33688939 -7.9921875 7.6328125 C-8.94480469 7.71660156 -9.89742188 7.80039062 -10.87890625 7.88671875 C-11.86761719 7.96535156 -12.85632813 8.04398437 -13.875 8.125 C-14.85597656 8.21136719 -15.83695312 8.29773438 -16.84765625 8.38671875 C-27.28901644 9.27444573 -27.28901644 9.27444573 -31 9 C-31.66 8.34 -32.32 7.68 -33 7 C-29.96256971 6.10622741 -27.34584073 5.92237565 -24.1875 6 C-17.09288085 6.07690644 -10.07096331 5.53437779 -3 5 C-3.495 4.01 -3.495 4.01 -4 3 C-8.30518014 3.11884529 -12.61015967 3.24312965 -16.91503906 3.37231445 C-18.37756148 3.41545337 -19.84012747 3.45714195 -21.30273438 3.49731445 C-23.4128936 3.5555307 -25.52283775 3.61907288 -27.6328125 3.68359375 C-28.90012207 3.72025146 -30.16743164 3.75690918 -31.47314453 3.79467773 C-34.7399478 3.98486059 -37.81209915 4.25850946 -41 5 C-41.33 5.66 -41.66 6.32 -42 7 C-41.34 7 -40.68 7 -40 7 C-40 7.66 -40 8.32 -40 9 C-41.32 8.67 -42.64 8.34 -44 8 C-43.875 6.125 -43.875 6.125 -43 4 C-37.44351043 1.46840006 -31.44185483 1.32709041 -25.4375 0.875 C-24.37080078 0.79008301 -23.30410156 0.70516602 -22.20507812 0.61767578 C-14.78612308 0.05662577 -7.44089884 -0.2615941 0 0 Z " fill="#F2DC75" transform="translate(472,252)"/>
<path d="M0 0 C1.46687256 -0.04060547 1.46687256 -0.04060547 2.96337891 -0.08203125 C3.75832764 -0.11232422 4.55327637 -0.14261719 5.37231445 -0.17382812 C7.87352759 0.22361636 8.74337425 1.21926408 10.32666016 3.13671875 C9.66666016 4.45671875 9.00666016 5.77671875 8.32666016 7.13671875 C-9.16333984 7.13671875 -26.65333984 7.13671875 -44.67333984 7.13671875 C-44.67333984 5.15671875 -44.67333984 3.17671875 -44.67333984 1.13671875 C-39.03576941 0.99252948 -33.3981563 0.85018677 -27.76049805 0.70947266 C-25.84707413 0.66146387 -23.93366229 0.61297153 -22.02026367 0.56396484 C-16.66083141 0.42686634 -11.30137718 0.30209724 -5.94134521 0.19091797 C-3.96044014 0.14357967 -1.98009962 0.07369771 0 0 Z M-41.67333984 2.13671875 C-42.00333984 3.12671875 -42.33333984 4.11671875 -42.67333984 5.13671875 C-40.27751638 6.33463048 -38.80556447 6.25739315 -36.13183594 6.25024414 C-34.72059952 6.25013084 -34.72059952 6.25013084 -33.28085327 6.25001526 C-31.75423569 6.24227333 -31.75423569 6.24227333 -30.19677734 6.234375 C-29.15639313 6.23296005 -28.11600891 6.2315451 -27.0440979 6.23008728 C-23.71214964 6.22447741 -20.38026789 6.21192322 -17.04833984 6.19921875 C-14.79313248 6.19420502 -12.53792406 6.18964189 -10.28271484 6.18554688 C-4.74623371 6.17450478 0.79020847 6.15775702 6.32666016 6.13671875 C6.65666016 4.81671875 6.98666016 3.49671875 7.32666016 2.13671875 C-8.84333984 2.13671875 -25.01333984 2.13671875 -41.67333984 2.13671875 Z " fill="#EFD777" transform="translate(47.67333984375,240.86328125)"/>
<path d="M0 0 C1.32 0 2.64 0 4 0 C4.33 9.9 4.66 19.8 5 30 C3.35 30.66 1.7 31.32 0 32 C0 21.44 0 10.88 0 0 Z " fill="#FDDE58" transform="translate(245,70)"/>
<path d="M0 0 C0.33 0 0.66 0 1 0 C1.223293 2.06093408 1.42802887 4.1238839 1.625 6.1875 C1.74101562 7.33605469 1.85703125 8.48460937 1.9765625 9.66796875 C2 13 2 13 1.02734375 15.07617188 C-0.48802994 19.38893692 -0.35805792 23.57210051 -0.4140625 28.11328125 C-0.43342865 29.08283249 -0.4527948 30.05238373 -0.4727478 31.05131531 C-0.53237436 34.13828828 -0.5788614 37.22529888 -0.625 40.3125 C-0.66319534 42.40952118 -0.70224798 44.50652694 -0.7421875 46.60351562 C-0.83806209 51.73555131 -0.92215577 56.86766043 -1 62 C0.65 61.34 2.3 60.68 4 60 C3.67 61.32 3.34 62.64 3 64 C1.35 64 -0.3 64 -2 64 C-4.3218631 59.3562738 -3.19356366 53.01159458 -3.1875 47.875 C-3.18789276 47.18237061 -3.18828552 46.48974121 -3.18869019 45.77612305 C-3.17828624 30.44203965 -2.31327011 15.17171747 0 0 Z " fill="#EED87A" transform="translate(246,40)"/>
<path d="M0 0 C2.125 0.9375 2.125 0.9375 4 2 C3.94465088 2.85303711 3.88930176 3.70607422 3.83227539 4.58496094 C2.58071558 24.05251139 1.57226609 43.49875369 1 63 C0.67 63 0.34 63 0 63 C-0.02464705 57.32169922 -0.04283462 51.64342931 -0.05493164 45.96508789 C-0.05997256 44.03181415 -0.06680519 42.09854424 -0.07543945 40.1652832 C-0.08751565 37.39273128 -0.09323057 34.62022959 -0.09765625 31.84765625 C-0.10281754 30.97786636 -0.10797882 30.10807648 -0.11329651 29.21192932 C-0.11349185 27.14094186 -0.06208168 25.07005676 0 23 C0.33 22.67 0.66 22.34 1 22 C1.15620555 20.58672053 1.25056173 19.1664541 1.31640625 17.74609375 C1.35830078 16.89208984 1.40019531 16.03808594 1.44335938 15.15820312 C1.48267578 14.26037109 1.52199219 13.36253906 1.5625 12.4375 C1.60568359 11.53580078 1.64886719 10.63410156 1.69335938 9.70507812 C1.79978142 7.47021515 1.90179988 5.23523692 2 3 C0.68 3.33 -0.64 3.66 -2 4 C-2 3.01 -2 2.02 -2 1 C-1.34 0.67 -0.68 0.34 0 0 Z " fill="#ECD674" transform="translate(249,36)"/>
<path d="M0 0 C0.66 0 1.32 0 2 0 C2.33 0.66 2.66 1.32 3 2 C4.32 2 5.64 2 7 2 C7.66 1.34 8.32 0.68 9 0 C10.03590338 1.06893218 11.05333942 2.15578488 12.0625 3.25 C12.63097656 3.85328125 13.19945312 4.4565625 13.78515625 5.078125 C15 7 15 7 14.68359375 9.234375 C14 11 14 11 12.29296875 11.765625 C10 12 10 12 7.67578125 10.234375 C6.89589844 9.41453125 6.11601563 8.5946875 5.3125 7.75 C4.52488281 6.94046875 3.73726563 6.1309375 2.92578125 5.296875 C1 3 1 3 0 0 Z " fill="#F0DA7D" transform="translate(117,121)"/>
<path d="M0 0 C0 0.66 0 1.32 0 2 C1.36125 2.12375 1.36125 2.12375 2.75 2.25 C6.42008088 3.09694174 7.69866328 4.07907263 10 7 C10 7.66 10 8.32 10 9 C3.16763326 8.09531903 -1.07892034 6.92107966 -6 2 C-3 0 -3 0 0 0 Z " fill="#F9DE62" transform="translate(417,325)"/>
<path d="M0 0 C4.29 0 8.58 0 13 0 C13 0.33 13 0.66 13 1 C9.37 1 5.74 1 2 1 C2.14033182 4.79194483 2.28700628 8.58345678 2.4375 12.375 C2.47681641 13.45523437 2.51613281 14.53546875 2.55664062 15.6484375 C2.59853516 16.6796875 2.64042969 17.7109375 2.68359375 18.7734375 C2.72025146 19.72653809 2.75690918 20.67963867 2.79467773 21.66162109 C2.85763465 24.02132349 2.85763465 24.02132349 4 26 C2.68 26 1.36 26 0 26 C0 17.42 0 8.84 0 0 Z " fill="#E5D7D1" transform="translate(299,344)"/>
<path d="M0 0 C0.66 0 1.32 0 2 0 C2 1.65 2 3.3 2 5 C1.01 5 0.02 5 -1 5 C-1.33 5.66 -1.66 6.32 -2 7 C-2.66 7 -3.32 7 -4 7 C-4 8.32 -4 9.64 -4 11 C-4.639375 11.12375 -5.27875 11.2475 -5.9375 11.375 C-6.618125 11.58125 -7.29875 11.7875 -8 12 C-8.33 12.66 -8.66 13.32 -9 14 C-9.99 14 -10.98 14 -12 14 C-12 10 -12 10 -9.8828125 7.859375 C-8.97273438 7.16328125 -8.06265625 6.4671875 -7.125 5.75 C-6.22007813 5.04359375 -5.31515625 4.3371875 -4.3828125 3.609375 C-2 2 -2 2 0 2 C0 1.34 0 0.68 0 0 Z " fill="#FCDE59" transform="translate(112,360)"/>
<path d="M0 0 C1.65 0 3.3 0 5 0 C5.33 1.32 5.66 2.64 6 4 C5.67 3.34 5.34 2.68 5 2 C4.01 2.33 3.02 2.66 2 3 C2.33 6.63 2.66 10.26 3 14 C3.66 14 4.32 14 5 14 C6.80230168 17.82989106 7.19622241 20.78121808 7 25 C4.32275145 22.32275145 3.57589926 19.26991701 2.4375 15.75 C2.21642578 15.09386719 1.99535156 14.43773438 1.76757812 13.76171875 C-1.66483532 3.32967064 -1.66483532 3.32967064 0 0 Z " fill="#F7E077" transform="translate(178,71)"/>
<path d="M0 0 C1.27875 0.28875 2.5575 0.5775 3.875 0.875 C4.95394531 1.11863281 4.95394531 1.11863281 6.0546875 1.3671875 C8 2 8 2 10 4 C10 4.99 10 5.98 10 7 C8.02 7 6.04 7 4 7 C4 6.34 4 5.68 4 5 C2.35 5 0.7 5 -1 5 C-0.67 3.35 -0.34 1.7 0 0 Z " fill="#F9DE6C" transform="translate(82,178)"/>
<path d="M0 0 C3.0595777 3.0595777 4.02376077 6.83662682 5 11 C4.6875 14.0625 4.6875 14.0625 4 16 C2.125 16.625 2.125 16.625 0 17 C-2.76223278 14.23776722 -2.57856291 11.79293383 -3 8 C-2.67 8.66 -2.34 9.32 -2 10 C-1.34 10 -0.68 10 0 10 C0.66 11.32 1.32 12.64 2 14 C1.43393721 9.30976546 0.81462495 4.65499974 0 0 Z " fill="#EED87A" transform="translate(321,406)"/>
<path d="M0 0 C-1.375 2 -1.375 2 -3 4 C-3.66 4 -4.32 4 -5 4 C-5.33 4.99 -5.66 5.98 -6 7 C-8.0625 7.6875 -8.0625 7.6875 -10 8 C-10.33 7.01 -10.66 6.02 -11 5 C-8.33930508 0.37879304 -5.21497347 -1.86249053 0 0 Z " fill="#FBDD5B" transform="translate(93,380)"/>
<path d="M0 0 C2.5 2.3125 2.5 2.3125 5 5 C5 5.99 5 6.98 5 8 C3.35 7.01 1.7 6.02 0 5 C0.66 7.31 1.32 9.62 2 12 C-0.96404505 9.19195732 -3.44499019 6.81684226 -5 3 C-3.35 3 -1.7 3 0 3 C0 2.01 0 1.02 0 0 Z " fill="#F5DF75" transform="translate(371,367)"/>
<path d="M0 0 C1.20849609 0.00322266 2.41699219 0.00644531 3.66210938 0.00976562 C5.55606445 0.02233398 5.55606445 0.02233398 7.48828125 0.03515625 C9.39963867 0.04192383 9.39963867 0.04192383 11.34960938 0.04882812 C14.50004689 0.06062752 17.65039074 0.07709028 20.80078125 0.09765625 C20.80078125 0.42765625 20.80078125 0.75765625 20.80078125 1.09765625 C17.25953135 1.43551719 13.71772309 1.76713456 10.17578125 2.09765625 C9.17675781 2.19304687 8.17773438 2.2884375 7.1484375 2.38671875 C-3.5644605 3.37996757 -3.5644605 3.37996757 -7.19921875 3.09765625 C-7.85921875 2.43765625 -8.51921875 1.77765625 -9.19921875 1.09765625 C-5.90187229 -0.00145924 -3.4696313 -0.01628935 0 0 Z " fill="#F1D97A" transform="translate(448.19921875,257.90234375)"/>
<path d="M0 0 C2.32421875 0.22265625 2.32421875 0.22265625 5 1 C6.58203125 2.99609375 6.58203125 2.99609375 7.8125 5.4375 C8.23144531 6.24058594 8.65039062 7.04367187 9.08203125 7.87109375 C10 10 10 10 10 12 C8.125 11.4375 8.125 11.4375 6 10 C4.75 6.375 4.75 6.375 4 3 C2.68 3 1.36 3 0 3 C-0.33 3.99 -0.66 4.98 -1 6 C-1.33 5.01 -1.66 4.02 -2 3 C-1.34 2.01 -0.68 1.02 0 0 Z " fill="#F2DB72" transform="translate(311,394)"/>
<path d="M0 0 C2.31255057 0.79226269 3.90822808 1.82179606 5.859375 3.28515625 C6.77976562 3.96771484 6.77976562 3.96771484 7.71875 4.6640625 C8.40710938 5.18806641 8.40710938 5.18806641 9.109375 5.72265625 C8.119375 6.05265625 7.129375 6.38265625 6.109375 6.72265625 C3.421875 4.78515625 3.421875 4.78515625 1.109375 2.72265625 C0.449375 3.38265625 -0.210625 4.04265625 -0.890625 4.72265625 C-0.230625 6.04265625 0.429375 7.36265625 1.109375 8.72265625 C-1.390625 6.97265625 -1.390625 6.97265625 -3.890625 4.72265625 C-3.890625 3.40265625 -3.890625 2.08265625 -3.890625 0.72265625 C-1.890625 -0.27734375 -1.890625 -0.27734375 0 0 Z " fill="#F3E175" transform="translate(68.890625,168.27734375)"/>
<path d="M0 0 C0.33 0.99 0.66 1.98 1 3 C-0.01320313 3.79664063 -0.01320313 3.79664063 -1.046875 4.609375 C-2.38492187 5.66898438 -2.38492187 5.66898438 -3.75 6.75 C-4.63171875 7.44609375 -5.5134375 8.1421875 -6.421875 8.859375 C-11.69030485 13.00248677 -11.69030485 13.00248677 -14 19 C-14.66 17.68 -15.32 16.36 -16 15 C-10.85228904 9.74723372 -5.66129431 4.69766975 0 0 Z " fill="#F0DB7D" transform="translate(387,131)"/>
<path d="M0 0 C0.33 0 0.66 0 1 0 C1 7.26 1 14.52 1 22 C2.65 21.34 4.3 20.68 6 20 C5.67 21.32 5.34 22.64 5 24 C3.35 24 1.7 24 0 24 C0 16.08 0 8.16 0 0 Z " fill="#F4DD6E" transform="translate(244,80)"/>
<path d="M0 0 C0.33 0.99 0.66 1.98 1 3 C0.01 3.33 -0.98 3.66 -2 4 C-2 4.66 -2 5.32 -2 6 C-1.01 6 -0.02 6 1 6 C1.33 5.01 1.66 4.02 2 3 C3.65 3.33 5.3 3.66 7 4 C4.8125 6.0625 4.8125 6.0625 2 8 C-0.8125 7.75 -0.8125 7.75 -3 7 C-3.33 5.68 -3.66 4.36 -4 3 C-2.68 2.01 -1.36 1.02 0 0 Z " fill="#F2DD7A" transform="translate(50,315)"/>
<path d="M0 0 C2.2790669 2.2790669 3.26250642 4.33378568 4.625 7.25 C5.07101563 8.18328125 5.51703125 9.1165625 5.9765625 10.078125 C7.08251803 13.23558584 7.18664338 15.67971259 7 19 C5.125 19.625 5.125 19.625 3 20 C2.34 19.34 1.68 18.68 1 18 C2.65 18 4.3 18 6 18 C5.566875 17.03578125 5.13375 16.0715625 4.6875 15.078125 C4.12461529 13.80225299 3.56213652 12.52620183 3 11.25 C2.71382812 10.61578125 2.42765625 9.9815625 2.1328125 9.328125 C0.63993298 5.91582896 0 3.79218083 0 0 Z " fill="#F3DD7D" transform="translate(187,85)"/>
<path d="M0 0 C1.67542976 0.28604898 3.34385343 0.61781233 5 1 C4.46884894 5.51478398 2.63379708 8.34666857 0 12 C-0.33 10.68 -0.66 9.36 -1 8 C-0.34 8 0.32 8 1 8 C0.67 7.01 0.34 6.02 0 5 C0.99 4.67 1.98 4.34 3 4 C3 3.34 3 2.68 3 2 C1.68 1.67 0.36 1.34 -1 1 C-0.67 0.67 -0.34 0.34 0 0 Z " fill="#F0DA77" transform="translate(174,399)"/>
<path d="M0 0 C0.66 0.33 1.32 0.66 2 1 C2 1.99 2 2.98 2 4 C1.01 4.495 1.01 4.495 0 5 C0 5.99 0 6.98 0 8 C-2.31 8 -4.62 8 -7 8 C-6.0409375 7.1028125 -6.0409375 7.1028125 -5.0625 6.1875 C-2.79689611 4.09189663 -2.79689611 4.09189663 -2 1 C-1.34 0.67 -0.68 0.34 0 0 Z " fill="#FBDD5D" transform="translate(390,130)"/>
<path d="M0 0 C0.33 1.32 0.66 2.64 1 4 C0.34 4 -0.32 4 -1 4 C-1 4.99 -1 5.98 -1 7 C-1.99 7.495 -1.99 7.495 -3 8 C-3.65555119 10.52733235 -3.65555119 10.52733235 -4 13 C-3.01 13.33 -2.02 13.66 -1 14 C-2.65 14 -4.3 14 -6 14 C-6.71484375 12.328125 -6.71484375 12.328125 -7 10 C-5.56640625 7.421875 -5.56640625 7.421875 -3.5625 4.75 C-2.90378906 3.85796875 -2.24507812 2.9659375 -1.56640625 2.046875 C-1.04949219 1.37140625 -0.53257812 0.6959375 0 0 Z " fill="#F2DF7F" transform="translate(169,405)"/>
<path d="M0 0 C2.31 0.66 4.62 1.32 7 2 C7 3.65 7 5.3 7 7 C6.67 6.34 6.34 5.68 6 5 C4.68 5.33 3.36 5.66 2 6 C1.67 5.01 1.34 4.02 1 3 C0.34 3 -0.32 3 -1 3 C-0.67 2.01 -0.34 1.02 0 0 Z " fill="#FBDF5C" transform="translate(118,118)"/>
<path d="M0 0 C0.66 0 1.32 0 2 0 C2.33 1.32 2.66 2.64 3 4 C2.34 4 1.68 4 1 4 C0.67 5.65 0.34 7.3 0 9 C-0.99 9 -1.98 9 -3 9 C-3 7.35 -3 5.7 -3 4 C-2.01 3.67 -1.02 3.34 0 3 C0 2.01 0 1.02 0 0 Z " fill="#FCE05D" transform="translate(168,409)"/>
<path d="M0 0 C1.67542976 0.28604898 3.34385343 0.61781233 5 1 C5 2.32 5 3.64 5 5 C2.03 4.505 2.03 4.505 -1 4 C-1.33 4.66 -1.66 5.32 -2 6 C-1.125 1.125 -1.125 1.125 0 0 Z " fill="#F0D569" transform="translate(117,355)"/>
<path d="M0 0 C2.0625 0.4375 2.0625 0.4375 4 1 C4.33 2.65 4.66 4.3 5 6 C3.68 6 2.36 6 1 6 C0.34 4.35 -0.32 2.7 -1 1 C-0.67 0.67 -0.34 0.34 0 0 Z " fill="#F8DE61" transform="translate(405,319)"/>
<path d="M0 0 C1.4540625 0.0309375 1.4540625 0.0309375 2.9375 0.0625 C2.6075 1.0525 2.2775 2.0425 1.9375 3.0625 C1.2775 3.0625 0.6175 3.0625 -0.0625 3.0625 C-1.68764468 4.52083358 -1.68764468 4.52083358 -3.0625 6.0625 C-3.7225 5.7325 -4.3825 5.4025 -5.0625 5.0625 C-3.9375 0.08035714 -3.9375 0.08035714 0 0 Z " fill="#FCDE57" transform="translate(73.0625,305.9375)"/>
<path d="M0 0 C1.65 0 3.3 0 5 0 C5.33 1.32 5.66 2.64 6 4 C5.67 3.34 5.34 2.68 5 2 C4.01 2.33 3.02 2.66 2 3 C2 5.31 2 7.62 2 10 C-0.58787727 7.41212273 -0.62709152 5.57992139 -1 2 C-0.67 1.34 -0.34 0.68 0 0 Z " fill="#EDDB7C" transform="translate(178,71)"/>
<path d="M0 0 C2.375 -0.1875 2.375 -0.1875 5 0 C7 3 7 3 7 6 C3.75728494 5.4409112 2.06942576 4.5867822 0 2 C0 1.34 0 0.68 0 0 Z " fill="#FCDD59" transform="translate(123,125)"/>
<path d="M0 0 C1.65 0 3.3 0 5 0 C5.66 1.32 6.32 2.64 7 4 C5.1875 4.6875 5.1875 4.6875 3 5 C1.25 3.6875 1.25 3.6875 0 2 C0 1.34 0 0.68 0 0 Z " fill="#FBDE5A" transform="translate(365,366)"/>
<path d="M0 0 C0.66 0 1.32 0 2 0 C2.33 0.66 2.66 1.32 3 2 C4.32 2 5.64 2 7 2 C7.144375 2.78375 7.28875 3.5675 7.4375 4.375 C7.87798925 6.96421018 7.87798925 6.96421018 9 9 C4.71930097 7.41455592 2.70478088 4.5312417 0 1 C0 0.67 0 0.34 0 0 Z " fill="#EED76E" transform="translate(117,121)"/>
<path d="M0 0 C1.8125 0.9375 1.8125 0.9375 2.8125 3.9375 C1.8225 4.9275 0.8325 5.9175 -0.1875 6.9375 C-0.1875 5.2875 -0.1875 3.6375 -0.1875 1.9375 C-2.1675 2.5975 -4.1475 3.2575 -6.1875 3.9375 C-2.77921598 -0.07940617 -2.77921598 -0.07940617 0 0 Z " fill="#F2DE7D" transform="translate(409.1875,113.0625)"/>
<path d="M0 0 C1.65 0.33 3.3 0.66 5 1 C4.67 2.65 4.34 4.3 4 6 C3.34 5.01 2.68 4.02 2 3 C0.35 3.33 -1.3 3.66 -3 4 C-2.01 2.68 -1.02 1.36 0 0 Z " fill="#EEDB74" transform="translate(335,88)"/>
<path d="M0 0 C1.32 0 2.64 0 4 0 C4 0.66 4 1.32 4 2 C3.34 2.66 2.68 3.32 2 4 C2 4.66 2 5.32 2 6 C0.68 6.33 -0.64 6.66 -2 7 C-1.125 2.25 -1.125 2.25 0 0 Z " fill="#FCDE5B" transform="translate(173,401)"/>
<path d="M0 0 C-1.04874998 2.62187494 -1.64931313 3.79371361 -4.125 5.25 C-4.74375 5.4975 -5.3625 5.745 -6 6 C-6.33 4.35 -6.66 2.7 -7 1 C-4.53721199 -0.231394 -2.7204945 -0.07159196 0 0 Z " fill="#F8DF6C" transform="translate(114,365)"/>
<path d="M0 0 C0 1.32 0 2.64 0 4 C-4.625 6.125 -4.625 6.125 -8 5 C-7.34 5 -6.68 5 -6 5 C-5.67 4.01 -5.34 3.02 -5 2 C-2 0 -2 0 0 0 Z " fill="#FCDE58" transform="translate(426,193)"/>
<path d="M0 0 C1.485 0.99 1.485 0.99 3 2 C2.67 2.66 2.34 3.32 2 4 C1.34 4 0.68 4 0 4 C0 2.68 0 1.36 0 0 Z M0 4 C0 5.98 0 7.96 0 10 C-1.32 8.35 -2.64 6.7 -4 5 C-1 4 -1 4 0 4 Z " fill="#F4DF73" transform="translate(381,380)"/>
<path d="M0 0 C2.475 0.99 2.475 0.99 5 2 C4.34 3.32 3.68 4.64 3 6 C2.01 5.34 1.02 4.68 0 4 C0 2.68 0 1.36 0 0 Z " fill="#FCDF5A" transform="translate(371,372)"/>
<path d="M0 0 C0 0.66 0 1.32 0 2 C-1.65 2 -3.3 2 -5 2 C-5 1.34 -5 0.68 -5 0 C-6.65 0 -8.3 0 -10 0 C-10 -0.33 -10 -0.66 -10 -1 C-3.375 -2.25 -3.375 -2.25 0 0 Z " fill="#FAE15A" transform="translate(91,183)"/>
<path d="M0 0 C1.32 0 2.64 0 4 0 C4.66 2.31 5.32 4.62 6 7 C3.95880212 5.38405168 1.95927063 3.7143618 0 2 C0 1.34 0 0.68 0 0 Z " fill="#F4DC70" transform="translate(106,109)"/>
<path d="M0 0 C-1.11666174 3.34998521 -1.74694925 3.79340222 -4.5625 5.6875 C-5.20316406 6.12449219 -5.84382813 6.56148438 -6.50390625 7.01171875 C-6.99761719 7.33785156 -7.49132812 7.66398437 -8 8 C-8.66 7.67 -9.32 7.34 -10 7 C-8.71372289 5.82739389 -7.42080217 4.6620717 -6.125 3.5 C-5.04605469 2.52546875 -5.04605469 2.52546875 -3.9453125 1.53125 C-2 0 -2 0 0 0 Z " fill="#F3DC80" transform="translate(96,373)"/>
<path d="M0 0 C-0.33 0.99 -0.66 1.98 -1 3 C-7.0546875 3.9765625 -7.0546875 3.9765625 -9 4 C-9.66 3.34 -10.32 2.68 -11 2 C-3.375 0 -3.375 0 0 0 Z " fill="#E1D2CD" transform="translate(321,341)"/>
<path d="M0 0 C0 0.33 0 0.66 0 1 C-3.96 1.66 -7.92 2.32 -12 3 C-12.33 2.34 -12.66 1.68 -13 1 C-8.20862412 -0.6290678 -4.94367454 -1.20577428 0 0 Z " fill="#E5D6CF" transform="translate(377,274)"/>
<path d="M0 0 C0.99 0.33 1.98 0.66 3 1 C3 1.99 3 2.98 3 4 C1.02 4.99 1.02 4.99 -1 6 C-1.33 4.35 -1.66 2.7 -2 1 C-1.34 0.67 -0.68 0.34 0 0 Z " fill="#FBDB5C" transform="translate(334,91)"/>
<path d="M0 0 C0.33 0.99 0.66 1.98 1 3 C2.98 2.67 4.96 2.34 7 2 C6.01 3.32 5.02 4.64 4 6 C2.68 5.67 1.36 5.34 0 5 C0 3.35 0 1.7 0 0 Z " fill="#EDDB80" transform="translate(316,112)"/>
<path d="M0 0 C0.33 1.32 0.66 2.64 1 4 C0.34 4 -0.32 4 -1 4 C-1 4.66 -1 5.32 -1 6 C-1.66 6 -2.32 6 -3 6 C-3 6.66 -3 7.32 -3 8 C-3.66 8 -4.32 8 -5 8 C-3.62845496 5.04590299 -2.01136276 2.55991624 0 0 Z " fill="#F4DC77" transform="translate(324,102)"/>
<path d="M0 0 C0.99 0.99 1.98 1.98 3 3 C1.68 4.32 0.36 5.64 -1 7 C-1.04254356 5.00045254 -1.04080783 2.99958364 -1 1 C-0.67 0.67 -0.34 0.34 0 0 Z " fill="#FCDE5C" transform="translate(382,383)"/>
<path d="M0 0 C1.32 0.33 2.64 0.66 4 1 C4.33 2.32 4.66 3.64 5 5 C2.525 4.01 2.525 4.01 0 3 C0 2.01 0 1.02 0 0 Z " fill="#FDE055" transform="translate(422,329)"/>
<path d="M0 0 C0.66 0.33 1.32 0.66 2 1 C1.79375 1.61875 1.5875 2.2375 1.375 2.875 C1.25125 3.57625 1.1275 4.2775 1 5 C1.66 5.66 2.32 6.32 3 7 C1.35 6.67 -0.3 6.34 -2 6 C-1.125 1.125 -1.125 1.125 0 0 Z " fill="#F0DB81" transform="translate(415,197)"/>
<path d="M0 0 C-0.33 1.32 -0.66 2.64 -1 4 C-2.32 4 -3.64 4 -5 4 C-5 3.01 -5 2.02 -5 1 C-3 0 -3 0 0 0 Z " fill="#FCDD57" transform="translate(322,111)"/>
</svg>
